<svg width="322" height="142" viewBox="0 0 322 142" fill="none" xmlns="http://www.w3.org/2000/svg">
<path fill-rule="evenodd" clip-rule="evenodd" d="M40.5417 40.6127C39.9084 39.1087 39.1404 37.6447 38.6671 36.0913C36.9751 30.5567 37.7004 25.5273 42.0084 21.314C45.5417 17.8593 49.0417 14.3727 52.5577 10.902C52.7097 10.7527 52.8671 10.61 53.1337 10.358C54.4537 11.7047 55.7417 13.03 57.0404 14.3447C59.5177 16.854 62.0777 19.286 64.4631 21.8793C66.8551 24.4807 68.2964 27.598 68.3951 31.1793C68.4857 34.5633 67.4764 37.73 65.4271 40.374C63.4657 42.902 61.1897 45.1993 58.9391 47.486C53.6777 52.8313 48.3631 58.1233 43.0391 63.406C40.2911 66.13 37.1217 68.1327 33.2017 68.7033C30.0017 69.1673 27.0857 68.3233 24.3151 66.786C21.9284 65.4633 20.1737 63.4287 18.3084 61.5127C15.8271 58.9607 13.3404 56.4153 10.8577 53.8633C10.6231 53.6233 10.4044 53.3673 10.3471 53.3033C12.9537 50.5873 15.4591 47.886 18.0711 45.2913C19.8191 43.554 21.5977 41.806 23.5737 40.35C26.4644 38.222 29.8231 37.7193 33.3684 38.182C35.9244 38.5167 38.1977 39.5727 40.4577 40.6993C40.4937 40.7353 40.5297 40.77 40.5671 40.8047C40.5591 40.7407 40.5497 40.6767 40.5417 40.6127Z" fill="#DD9132"/>
<path fill-rule="evenodd" clip-rule="evenodd" d="M100.163 39.5345C101.489 38.9692 102.792 38.3212 104.152 37.8519C108.96 36.1905 113.583 36.3625 117.817 39.4892C118.535 40.0199 119.16 40.6825 119.793 41.3185C123.125 44.6625 126.447 48.0185 129.772 51.3705C129.987 51.5879 130.187 51.8185 130.251 51.8865C126.416 55.8159 122.7 59.7799 118.796 63.5479C117.537 64.7585 115.865 65.6519 114.239 66.3479C109.679 68.2945 105.303 67.4492 101.22 64.9265C99.7055 63.9892 98.2788 62.8399 97.0081 61.5865C90.4495 55.1079 83.9321 48.5865 77.4401 42.0372C74.6588 39.2305 72.6161 35.9879 72.1148 31.9532C71.6841 28.4932 72.6801 25.3759 74.5495 22.5359C75.3428 21.3319 76.3401 20.2372 77.3681 19.2172C80.7855 15.8292 84.2615 12.4972 87.7588 9.09853C91.6268 13.0479 95.5321 16.9119 99.2721 20.9292C100.383 22.1225 101.229 23.6692 101.843 25.1972C103.721 29.8852 102.74 34.3679 100.496 38.6865C100.357 38.9532 100.264 39.2439 100.152 39.5239C100.127 39.5679 100.104 39.6159 100.08 39.6599C100.108 39.6185 100.135 39.5759 100.163 39.5345Z" fill="#4A7BBC"/>
<path fill-rule="evenodd" clip-rule="evenodd" d="M99.9883 99.1497C100.69 100.935 101.49 102.556 101.967 104.267C103.468 109.65 102.532 114.462 98.4563 118.534C94.8203 122.167 91.2829 125.898 87.5829 129.711C85.5243 127.615 83.6896 125.748 81.8549 123.88C79.8163 121.804 77.6349 119.848 75.7656 117.631C71.0403 112.026 70.7829 105.142 75.2349 99.1951C77.2416 96.5111 79.7443 94.1871 82.1109 91.7884C87.2496 86.5857 92.4349 81.4257 97.6203 76.2671C100.074 73.8297 102.927 71.9831 106.335 71.2817C110.248 70.4751 113.947 71.3311 117.127 73.6924C119.12 75.1684 120.854 77.0084 122.622 78.7684C125.003 81.1391 127.306 83.5884 129.642 86.0097C129.852 86.2284 130.05 86.4577 130.291 86.7284C129.026 87.9951 127.818 89.2297 126.579 90.4364C123.774 93.1724 121.07 96.0284 118.106 98.5871C114.772 101.464 110.806 102.386 106.426 101.524C104.372 101.122 102.478 100.371 100.643 99.4111C100.462 99.3164 100.262 99.2577 99.9883 99.1497Z" fill="#DD9132"/>
<path fill-rule="evenodd" clip-rule="evenodd" d="M52.7403 130.681C51.7469 129.673 50.7936 128.705 49.8376 127.738C47.1109 124.977 44.3229 122.268 41.6696 119.437C37.0203 114.481 36.6203 108.262 39.4269 102.256C39.7403 101.584 40.1136 100.938 40.5589 100.096C40.1976 100.24 39.9896 100.302 39.8016 100.405C36.7883 102.033 33.6323 103.106 30.1456 102.981C26.7443 102.856 23.8016 101.632 21.3976 99.2409C17.6963 95.5609 14.0523 91.8223 10.3843 88.1089C10.2776 88.0023 10.1829 87.8823 10.0469 87.7289C13.1403 84.6396 16.2389 81.5943 19.2803 78.4903C21.2029 76.5289 23.2403 74.7663 25.7869 73.6316C30.0163 71.7463 34.0989 72.2409 38.1269 74.2249C41.0443 75.6623 43.2496 77.9636 45.5029 80.2263C51.3043 86.0543 57.1483 91.8436 62.9576 97.6623C65.1523 99.8609 66.9189 102.358 67.8456 105.361C69.1936 109.724 68.3483 113.764 65.8083 117.462C64.9736 118.677 63.9269 119.764 62.8776 120.809C59.8389 123.834 56.7509 126.809 53.6803 129.801C53.3963 130.077 53.1016 130.345 52.7403 130.681Z" fill="#4A7BBC"/>
<path fill-rule="evenodd" clip-rule="evenodd" d="M115.429 123.119C111.262 123.119 107.804 119.675 107.802 115.528C107.8 111.404 111.285 107.901 115.404 107.881C119.546 107.864 123.11 111.416 123.098 115.556C123.088 119.655 119.574 123.119 115.429 123.119Z" fill="#DD9132"/>
<path fill-rule="evenodd" clip-rule="evenodd" d="M122.775 24.1093C122.751 28.2827 119.283 31.7213 115.119 31.696C110.947 31.672 107.561 28.1547 107.595 23.8773C107.625 19.7387 111.136 16.3493 115.352 16.3867C119.427 16.4213 122.797 19.928 122.775 24.1093Z" fill="#4A7BBC"/>
<path fill-rule="evenodd" clip-rule="evenodd" d="M25.0924 33.2448C20.8897 33.2568 17.4164 29.8061 17.4137 25.6181C17.4111 21.5475 20.9284 17.9861 24.9417 17.9955C29.1844 18.0061 32.6497 21.4248 32.6537 25.6021C32.6564 29.7835 29.2444 33.2328 25.0924 33.2448Z" fill="#DD9132"/>
<path fill-rule="evenodd" clip-rule="evenodd" d="M32.9024 115.766C32.9024 119.964 29.5131 123.382 25.3131 123.414C21.1637 123.451 17.6904 119.972 17.6957 115.791C17.7011 111.56 21.0824 108.16 25.2837 108.159C29.4877 108.159 32.9024 111.568 32.9024 115.766Z" fill="#4A7BBC"/>
<path d="M142.021 69.3516H149.308C150.507 69.3516 151.524 69.2396 152.36 69.0209C153.196 68.7996 153.879 68.4743 154.408 68.0449C154.936 67.6116 155.321 67.0836 155.569 66.4583C155.816 65.8329 155.939 65.1063 155.939 64.2783C155.939 63.2756 155.759 62.4716 155.397 61.8649C155.037 61.2556 154.543 60.7809 153.917 60.4369C153.293 60.0943 152.572 59.8636 151.751 59.7489C150.933 59.6343 150.077 59.5769 149.179 59.5769H142.021V69.3516ZM135.524 53.5823H148.887C150.684 53.5823 152.408 53.7396 154.064 54.0463C155.717 54.3529 157.176 54.9076 158.433 55.7103C159.693 56.5103 160.701 57.5929 161.46 58.9583C162.215 60.3236 162.595 62.0623 162.595 64.1743C162.595 67.8876 161.467 70.6743 159.215 72.5316C156.96 74.3903 153.616 75.3183 149.179 75.3183H142.021V88.4423H135.524V53.5823Z" fill="white"/>
<path d="M175.717 68.4271H184.379C185.543 68.4271 186.535 68.3457 187.363 68.1871C188.191 68.0284 188.868 67.7657 189.397 67.3964C189.925 67.0257 190.313 66.5471 190.559 65.9551C190.805 65.3671 190.928 64.6404 190.928 63.7791C190.928 62.2297 190.449 61.0937 189.491 60.3697C188.529 59.6484 187.048 59.2884 185.04 59.2884H175.717V68.4271ZM188.843 78.9631C188.613 78.3124 188.299 77.7084 187.892 77.1537C187.488 76.5991 187.023 76.1204 186.493 75.7137C185.965 75.3097 185.379 74.9924 184.736 74.7631C184.092 74.5337 183.412 74.4191 182.689 74.4191H175.717V88.4431H169.196V53.5831H184.829C185.761 53.5831 186.652 53.6057 187.496 53.6497C188.343 53.6951 189.149 53.7964 189.925 53.9524C190.699 54.1111 191.439 54.3511 192.144 54.6657C192.848 54.9831 193.524 55.4164 194.179 55.9604C195.321 56.9284 196.181 58.1084 196.751 59.4991C197.324 60.8911 197.611 62.3177 197.611 63.7791C197.611 65.9084 197.095 67.7337 196.067 69.2577C195.035 70.7817 193.624 71.9484 191.827 72.7591C192.584 73.3204 193.261 74.0364 193.86 74.9084C194.46 75.7817 194.988 76.8484 195.444 78.1177L199.193 88.4431H192.171L188.843 78.9631Z" fill="white"/>
<path d="M219.767 88.9973C217.567 88.9973 215.696 88.7787 214.158 88.3387C212.616 87.8987 211.327 87.304 210.288 86.5547C209.248 85.8067 208.431 84.9267 207.832 83.9133C207.234 82.9013 206.783 81.8227 206.486 80.68C206.186 79.5333 205.996 78.3547 205.918 77.14C205.838 75.924 205.798 74.7293 205.798 73.5493V53.5827H212.295V73.4973C212.295 75.4867 212.462 77.1013 212.795 78.3413C213.131 79.5827 213.616 80.552 214.248 81.248C214.882 81.9427 215.663 82.4187 216.584 82.672C217.51 82.9293 218.572 83.0573 219.767 83.0573C220.983 83.0573 222.054 82.9293 222.978 82.672C223.9 82.4187 224.676 81.9373 225.3 81.2347C225.926 80.528 226.398 79.5573 226.712 78.3147C227.03 77.076 227.188 75.4693 227.188 73.4973V53.5827H233.739V73.5493C233.739 75.9787 233.53 78.148 233.119 80.06C232.704 81.9693 231.97 83.5827 230.912 84.904C229.855 86.224 228.426 87.2373 226.622 87.9427C224.816 88.6453 222.532 88.9973 219.767 88.9973Z" fill="white"/>
<path d="M264.848 70.8281C264.848 69.0681 264.676 67.4921 264.332 66.1015C263.988 64.7108 263.389 63.5308 262.536 62.5628C261.681 61.5961 260.533 60.8561 259.09 60.3441C257.648 59.8321 255.832 59.5775 253.65 59.5775H248.712V82.4481H253.65C255.814 82.4481 257.618 82.1855 259.064 81.6561C260.506 81.1281 261.654 80.3668 262.509 79.3721C263.364 78.3775 263.968 77.1641 264.32 75.7268C264.67 74.2921 264.848 72.6615 264.848 70.8281ZM271.501 70.8281C271.501 82.5735 265.558 88.4428 253.676 88.4428H242.189V53.5828H253.676C265.558 53.5828 271.501 59.3321 271.501 70.8281Z" fill="white"/>
<path d="M284.837 88.4427H278.368V53.5827H284.837V88.4427Z" fill="white"/>
<path d="M315.788 88.4427H293.288V53.5827H299.785V82.448H315.788V88.4427Z" fill="white"/>
<path d="M163.6 97.4817L162.231 101.804H164.986L163.6 97.4817ZM160.179 105.294L163.067 96.2657H164.379L167.303 105.294L166.158 105.291L165.248 102.656H161.918L161.087 105.291L160.179 105.294Z" fill="white"/>
<path d="M169.639 97.224V104.323H171.525C172.407 104.323 173.113 103.987 173.645 103.312C174.15 102.675 174.405 101.869 174.405 100.899V100.636C174.405 99.6387 174.167 98.8333 173.697 98.2213C173.178 97.5573 172.449 97.224 171.503 97.224H169.639ZM168.511 96.2653H171.491C172.785 96.2653 173.801 96.708 174.535 97.5907C175.199 98.396 175.533 99.4013 175.533 100.609C175.533 101.921 175.213 103.016 174.574 103.891C173.891 104.828 172.991 105.295 171.871 105.295H168.511V96.2653Z" fill="white"/>
<path d="M176.202 96.2656L177.393 96.2629L179.871 103.692L182.371 96.2656H183.355L180.298 105.294H179.246L176.202 96.2656Z" fill="white"/>
<path d="M190.204 100.523C190.204 99.3235 189.926 98.4195 189.366 97.8155C188.91 97.3261 188.35 97.0781 187.686 97.0781C186.838 97.0781 186.186 97.4995 185.731 98.3408C185.363 99.0261 185.178 99.8288 185.178 100.747C185.178 101.685 185.332 102.479 185.639 103.127C186.066 104.039 186.732 104.495 187.634 104.495C188.28 104.495 188.827 104.266 189.275 103.81C189.895 103.171 190.204 102.177 190.204 100.826V100.523ZM183.999 100.781C183.999 99.5541 184.288 98.5101 184.863 97.6435C185.53 96.6461 186.444 96.1488 187.608 96.1488C188.85 96.1488 189.808 96.6061 190.48 97.5261C191.076 98.3381 191.374 99.3488 191.374 100.557V100.846C191.374 101.895 191.123 102.846 190.626 103.693C189.947 104.849 188.947 105.427 187.626 105.427C186.639 105.427 185.819 105.075 185.163 104.375C184.387 103.545 183.999 102.346 183.999 100.781" fill="white"/>
<path d="M193.199 96.2656H194.327V101.528L198.397 96.2656L199.606 96.2683L197.181 99.4656L200.325 105.294L199.069 105.292L196.405 100.32L194.327 102.88V105.294H193.199V96.2656Z" fill="white"/>
<path d="M206.007 93.4921L206.468 94.3415L203.645 95.5575L203.356 95.0468L206.007 93.4921ZM203.772 97.4815L202.405 101.804H205.16L203.772 97.4815ZM200.351 105.295L203.239 96.2655H204.551L207.479 105.295L206.332 105.292L205.424 102.656H202.089L201.261 105.292L200.351 105.295Z" fill="white"/>
<path d="M207.712 96.2916L213.96 96.2649V97.2756H211.403V105.294H210.272V97.2756H207.712V96.2916Z" fill="white"/>
<path d="M215.194 96.2656L216.603 96.2629L220.889 103.615V96.2656H221.809V105.294H220.733L216.139 97.4456V105.294H215.194V96.2656Z" fill="white"/>
<path d="M226.626 93.4921L227.085 94.3415L224.262 95.5575L223.973 95.0468L226.626 93.4921ZM225.038 105.295H223.908V96.2668H225.038V105.295Z" fill="white"/>
<path d="M231.272 96.2656H232.4V101.528L236.469 96.2656L237.679 96.2683L235.253 99.4656L238.397 105.294L237.141 105.292L234.477 100.32L232.4 102.88V105.294H231.272V96.2656Z" fill="white"/>
<path d="M241.845 97.4817L240.478 101.804H243.233L241.845 97.4817ZM238.424 105.294L241.312 96.2657H242.624L245.55 105.294L244.405 105.291L243.496 102.656H240.162L239.334 105.291L238.424 105.294Z" fill="white"/>
<path d="M246.707 96.2656L248.114 96.2629L252.402 103.615V96.2656H253.322V105.294H252.243L247.65 97.4456V105.294H246.707V96.2656Z" fill="white"/>
<path d="M260.827 102.276L261.851 102.473C261.561 103.628 261.037 104.445 260.275 104.927C259.741 105.26 259.089 105.427 258.319 105.427C257.217 105.427 256.348 104.921 255.709 103.916C255.139 103.016 254.855 101.896 254.855 100.557C254.855 99.3413 255.139 98.336 255.709 97.5387C256.373 96.612 257.319 96.148 258.543 96.148C259.384 96.148 260.095 96.3933 260.676 96.8827C261.259 97.372 261.641 98.088 261.824 99.0333L260.775 99.2187C260.589 98.5133 260.316 97.9813 259.947 97.62C259.579 97.26 259.103 97.0787 258.517 97.0787C257.72 97.0787 257.103 97.4427 256.665 98.1693C256.283 98.8027 256.089 99.5933 256.089 100.549C256.089 101.513 256.225 102.32 256.496 102.969C256.819 103.74 257.321 104.219 258.007 104.401L258.595 104.495C259.077 104.495 259.501 104.336 259.868 104.021C260.316 103.637 260.633 103.055 260.827 102.276Z" fill="white"/>
<path d="M263.543 96.2656H269.238V97.2496H264.674V100.112H268.283V101.042H264.674V104.323H269.358V105.294H263.543V96.2656Z" fill="white"/>
<path d="M270.881 96.2656H272.009V104.296H276.184V105.294H270.881V96.2656Z" fill="white"/>
<path d="M282.152 93.4921L282.614 94.3415L279.791 95.5575L279.502 95.0468L282.152 93.4921ZM279.918 97.4815L278.551 101.804H281.306L279.918 97.4815ZM276.496 105.295L279.384 96.2655H280.696L283.624 105.295L282.478 105.292L281.57 102.656H278.235L277.407 105.292L276.496 105.295Z" fill="white"/>
<path d="M285.908 97.25V100.441H288.244C288.837 100.441 289.293 100.266 289.608 99.9167C289.889 99.602 290.028 99.1873 290.028 98.674C290.028 98.266 289.897 97.9353 289.634 97.6793C289.337 97.3927 288.913 97.25 288.361 97.25H285.908ZM285.277 93.9433L286.22 93.8153L287.498 94.6273L288.768 93.81L289.66 93.9433L287.509 95.5567L285.277 93.9433ZM284.78 96.266H288.113C289.056 96.266 289.801 96.4767 290.342 96.9007C290.886 97.326 291.158 97.938 291.158 98.7313C291.158 99.2833 291.004 99.7807 290.697 100.222C290.392 100.665 289.981 100.963 289.465 101.122L291.262 105.294L290.077 105.297L288.386 101.37H285.908V105.294H284.78V96.266Z" fill="white"/>
</svg>
